<svg width="500" height="340" viewBox="0 0 500 340" fill="none" xmlns="http://www.w3.org/2000/svg" font-family="Inter, 'Segoe UI', sans-serif">
  <rect x="20" y="16" width="460" height="308" rx="20" fill="#F3F6F5"/>

  <!-- header row -->
  <circle cx="52" cy="52" r="4" fill="#ECB84D"/>
  <text x="64" y="56" font-size="12" font-weight="700" letter-spacing="0.5" fill="#B98A1F">THIS WEEK &#183; CREW</text>
  <rect x="372" y="42" width="88" height="22" rx="11" fill="#EAF5DE"/>
  <path d="M383 53l3 3 5-5.5" stroke="#5FA02E" stroke-width="1.8" fill="none" stroke-linecap="round" stroke-linejoin="round"/>
  <text x="395" y="57" font-size="11" font-weight="700" fill="#5FA02E">Payroll ready</text>

  <!-- roster card -->
  <rect x="40" y="72" width="420" height="180" rx="16" fill="#FFFFFF" stroke="#E4EAE8"/>

  <!-- row 1 -->
  <circle cx="72" cy="106" r="16" fill="#1D4E5F"/>
  <text x="66" y="110" font-size="11" font-weight="700" fill="#FFFFFF">AR</text>
  <text x="98" y="103" font-size="13.5" font-weight="700" fill="#1D4E5F">Ana Reyes</text>
  <text x="98" y="119" font-size="11" fill="#9AA9AC">Crew lead</text>
  <text x="392" y="103" font-size="13" font-weight="700" fill="#3E4B4F" text-anchor="end">40.0 hrs</text>
  <text x="392" y="119" font-size="10.5" fill="#7DC243" text-anchor="end" font-weight="700">On schedule</text>
  <line x1="56" y1="140" x2="444" y2="140" stroke="#EEF2F1"/>

  <!-- row 2 -->
  <circle cx="72" cy="162" r="16" fill="#5FA02E"/>
  <text x="66" y="166" font-size="11" font-weight="700" fill="#FFFFFF">JB</text>
  <text x="98" y="159" font-size="13.5" font-weight="700" fill="#1D4E5F">Jamal Brooks</text>
  <text x="98" y="175" font-size="11" fill="#9AA9AC">Technician</text>
  <text x="392" y="159" font-size="13" font-weight="700" fill="#3E4B4F" text-anchor="end">38.5 hrs</text>
  <text x="392" y="175" font-size="10.5" fill="#7DC243" text-anchor="end" font-weight="700">On schedule</text>
  <line x1="56" y1="196" x2="444" y2="196" stroke="#EEF2F1"/>

  <!-- row 3 -->
  <circle cx="72" cy="218" r="16" fill="#ECB84D"/>
  <text x="66" y="222" font-size="11" font-weight="700" fill="#FFFFFF">SO</text>
  <text x="98" y="215" font-size="13.5" font-weight="700" fill="#1D4E5F">Sofia Ortiz</text>
  <text x="98" y="231" font-size="11" fill="#9AA9AC">Apprentice &#183; onboarding</text>
  <text x="392" y="215" font-size="13" font-weight="700" fill="#3E4B4F" text-anchor="end">32.0 hrs</text>
  <text x="392" y="231" font-size="10.5" fill="#B98A1F" text-anchor="end" font-weight="700">2 SOPs left</text>

  <!-- footer summary -->
  <text x="52" y="292" font-size="12" fill="#6C7A7D">Hours tracked by job &#183; flowing straight to payroll</text>
</svg>
